<svg version="1.2" xmlns="http://www.w3.org/2000/svg" viewBox="0 0 16 16" width="16" height="16">
	<title>icon-board-svg</title>
	<style>
		.s0 { fill: #635fc7 } 
	</style>
	<path id="Layer" fill-rule="evenodd" class="s0" d="m0 2.9q0-0.6 0.2-1.1 0.2-0.5 0.6-1 0.5-0.4 1-0.6 0.5-0.2 1.1-0.2h10.2q0.6 0 1.1 0.2 0.5 0.2 1 0.6 0.4 0.5 0.6 1 0.2 0.5 0.2 1.1v10.2q0 0.6-0.2 1.1-0.2 0.5-0.6 1-0.5 0.4-1 0.6-0.5 0.2-1.1 0.2h-10.2q-0.6 0-1.1-0.2-0.5-0.2-1-0.6-0.4-0.5-0.6-1-0.2-0.5-0.2-1.1c0 0 0-10.2 0-10.2zm1.3 5.5v4.7c0 0.9 0.7 1.6 1.6 1.6h6.9v-6.3zm8.4-1.3q0 0 0 0v-5.8h-6.9q-0.3 0-0.6 0.2-0.2 0.1-0.5 0.3-0.2 0.2-0.3 0.5-0.1 0.3-0.1 0.6v4.2c0 0 8.4 0 8.4 0zm4.9-1.3h-3.5v4.4h3.5c0 0 0-4.4 0-4.4zm0 5.8h-3.5v3.1h2q0.3 0 0.6-0.2 0.2-0.1 0.5-0.3 0.2-0.2 0.3-0.5 0.1-0.3 0.1-0.6c0 0 0-1.5 0-1.5zm0-7.2v-1.5q0-0.3-0.1-0.6-0.1-0.3-0.3-0.5-0.3-0.2-0.5-0.3-0.3-0.2-0.6-0.2h-2v3.1c0 0 3.5 0 3.5 0z"/>
</svg>